<?xml version="1.0" encoding="UTF-8" standalone="no"?>
<!-- Created with Inkscape (http://www.inkscape.org/) -->

<svg
   xmlns:dc="http://purl.org/dc/elements/1.1/"
   xmlns:cc="http://creativecommons.org/ns#"
   xmlns:rdf="http://www.w3.org/1999/02/22-rdf-syntax-ns#"
   xmlns:svg="http://www.w3.org/2000/svg"
   xmlns="http://www.w3.org/2000/svg"
   xmlns:sodipodi="http://sodipodi.sourceforge.net/DTD/sodipodi-0.dtd"
   xmlns:inkscape="http://www.inkscape.org/namespaces/inkscape"
   width="450"
   height="450"
   viewBox="0 0 119.0625 119.0625"
   version="1.1"
   id="svg1307"
   inkscape:version="0.92.3 (2405546, 2018-03-11)"
   sodipodi:docname="FirefoxB2BRC.svg"
   inkscape:export-filename="/home/leader/FirefoxB2BRC.png"
   inkscape:export-xdpi="96"
   inkscape:export-ydpi="96">
  <defs
     id="defs1301">
    <clipPath
       clipPathUnits="userSpaceOnUse"
       id="clipPath1135">
      <circle
         style="fill:none;stroke:none;stroke-opacity:1"
         id="circle1137"
         cx="654.02539"
         cy="750.87292"
         r="650" />
    </clipPath>
    <clipPath
       clipPathUnits="userSpaceOnUse"
       id="clipPath970">
      <ellipse
         style="fill:none;fill-opacity:1;stroke:#000000;stroke-width:0.13214484;stroke-opacity:1"
         id="ellipse972"
         cx="59.928829"
         cy="237.79311"
         rx="59.465176"
         ry="59.465179" />
    </clipPath>
  </defs>
  <sodipodi:namedview
     id="base"
     pagecolor="#ffffff"
     bordercolor="#666666"
     borderopacity="1.0"
     inkscape:pageopacity="0.0"
     inkscape:pageshadow="2"
     inkscape:zoom="0.98994949"
     inkscape:cx="195.23904"
     inkscape:cy="212.84152"
     inkscape:document-units="mm"
     inkscape:current-layer="layer1"
     showgrid="false"
     units="px"
     inkscape:window-width="1366"
     inkscape:window-height="709"
     inkscape:window-x="0"
     inkscape:window-y="0"
     inkscape:window-maximized="1" />
  <metadata
     id="metadata1304">
    <rdf:RDF>
      <cc:Work
         rdf:about="">
        <dc:format>image/svg+xml</dc:format>
        <dc:type
           rdf:resource="http://purl.org/dc/dcmitype/StillImage" />
        <dc:title />
      </cc:Work>
    </rdf:RDF>
  </metadata>
  <g
     inkscape:label="Layer 1"
     inkscape:groupmode="layer"
     id="layer1"
     transform="translate(0,-177.93746)">
    <g
       id="g1114"
       transform="translate(-0.52916667)">
      <g
         clip-path="url(#clipPath970)"
         id="g287">
        <rect
           width="128.22116"
           height="128.29742"
           id="rect8"
           x="-0.29307717"
           y="168.74236"
           style="fill:#d4dfdc;stroke-width:0.09161378" />
        <path
           d="m -0.29307718,231.36066 v 65.67912 H 93.161828 c 3.956539,-0.59567 7.922232,-0.76979 11.732232,0 h 23.03402 v -63.17732 c -8.59082,2.84087 -17.50219,4.82032 -26.43188,6.2041 -33.978603,5.26935 -69.202786,2.2452 -101.78927718,-8.7059 z"
           id="path10"
           inkscape:connector-curvature="0"
           style="fill:#b1dcda;stroke-width:0.09161378" />
        <g
           id="g76"
           transform="matrix(0.09158654,0,0,0.09164102,-4.9112121,188.58496)">
          <path
             d="m 473.1,955.3 c -27.4,-2.7 -62.8,23.1 -88.9,32 -31.8,10.7 -62.1,16.4 -94.2,24.7 -41.6,10.8 -89.1,49.9 -22.7,65.4 65.5,15.3 117.8,50.6 182.4,72.6 82.7,28.1 184.2,1 267.8,-2.8 54.2,-2.5 97.7,-4 149.3,-21.1 50.2,-16.6 105,-7.3 156.1,-23.5 C 1157.3,1060 984.2,997.1 923.8,985.9 832.6,969.1 738.1,970.7 644.6,966.5 614.1,965.2 485.1,988.8 473.1,955.3 Z"
             id="path12"
             inkscape:connector-curvature="0"
             style="fill:#a7d1ce" />
          <g
             id="g74">
            <path
               d="m 708.4,1028.4 c 12.9,28.3 25.9,69.1 52.6,88.4 25.2,18.2 62.3,12.4 45.9,-23.8 -7.5,-16.6 -26.8,-28.4 -36.4,-44.5 -7.9,-13.4 -10.2,-33.5 -20,-45.2 -26.8,-31.9 -53.9,-0.9 -42.1,25.1 z"
               id="path14"
               inkscape:connector-curvature="0"
               style="fill:#544741" />
            <path
               d="m 790.6,988.3 c 12.9,28.3 25.9,69.1 52.6,88.4 25.2,18.2 62.3,12.4 45.9,-23.8 -7.5,-16.6 -26.8,-28.4 -36.4,-44.5 -7.9,-13.4 -10.2,-33.5 -20,-45.2 -26.8,-31.9 -53.9,-0.9 -42.1,25.1 z"
               id="path16"
               inkscape:connector-curvature="0"
               style="fill:#544741" />
            <path
               d="m 625.1,644.6 c 0,66.9 -66,97.2 -111.4,136 -29.3,25 -48.8,58.7 -71.1,90.2 -21.8,30.8 -30.5,52.1 -32,89.9 -2.3,57.5 40.2,110.4 89.7,135 58,28.8 112.5,39.1 171.2,7.4 24.9,-13.4 45.6,-31.8 62.8,-54.3 26.7,-35.1 51.5,-73.1 73.6,-111.6 32,-55.7 56.3,-110.5 75.8,-172.6 16.8,-53.3 34.8,-150 -28.5,-178.4 -61.4,-27.5 -124,-5.6 -180.3,23.6 -16.7,8.7 -49.8,17.1 -49.8,34.8 z"
               id="path18"
               inkscape:connector-curvature="0"
               style="fill:#f15a23" />
            <path
               d="m 746.8,1032.1 c 22,-30.4 42.6,-62.5 61.2,-94.9 25.5,-44.3 46,-88.1 63.2,-135.3 -34.7,-37.4 -96.5,-54.8 -125.5,-9.7 -17.3,9.8 -32.9,35.4 -42.3,48.6 -22.7,32 -39,68.7 -45.2,107.4 -11.9,73.6 35.1,95.4 88.6,83.9 z"
               id="path20"
               inkscape:connector-curvature="0"
               style="fill:#eddccc" />
            <path
               d="m 719.9,802 c 29.6,15.6 49.4,40.2 62.2,71.6 7.5,18.6 9.1,38.9 5.9,58.8 -3.9,23.6 -17,34.9 -36.3,46.9 -28.4,17.7 -60.3,20.5 -92.7,14.7 -32.5,-5.9 -66.1,-13.1 -80.9,-46.1 -14.1,-31.4 -12.4,-75.7 15.4,-98.6 26.3,-21.7 57.7,-27.5 89.9,-33.6 7.1,-1.3 15.3,-2.6 21.3,-6.9 4.7,-3.4 9.2,-5 15.2,-6.8 z"
               id="path22"
               inkscape:connector-curvature="0"
               style="fill:#e55123" />
            <path
               d="m 534,761.7 c -68.8,12.4 -144.5,88.9 -168,151 -40.8,108 39.4,177.6 139.2,202.7 91.5,23 175.4,10.6 257,-34.8 61.9,-34.5 149.7,-93.8 224.8,-77 C 968.9,965.6 950.3,930 916,903.1 867.2,864.8 797.4,853.5 736.2,858.2 679.2,862.6 575,918.3 529.3,863 506.5,835.5 508.5,784.6 534,761.7 Z"
               id="path24"
               inkscape:connector-curvature="0"
               style="fill:#f15a23" />
            <path
               d="m 930.3,434.4 c 0,0 -127.3,-48.4 -210.8,-8.8 -83.5,39.6 -126.5,94.7 -135.6,144.7 -9.1,50.1 52.8,131.8 153.7,217.1 100.9,85.3 172.4,61.5 289.4,14.8 117,-46.7 122.8,-113.3 90,-194.2 -31.4,-77.4 -67.3,-121.3 -186.7,-173.6 z"
               id="path26"
               inkscape:connector-curvature="0"
               style="fill:#f5e6d6" />
            <path
               d="m 1132,657.8 c -2.8,-15.9 -8,-32.5 -15,-49.7 -31.4,-77.5 -67.3,-121.3 -186.8,-173.6 0,0 -127.3,-48.4 -210.8,-8.8 -25.4,12.1 -47.1,25.6 -65.2,40 21.1,0.7 41.9,1.1 63.9,10.2 31.7,13.2 70.6,33.5 87.5,64.7 17.4,32.2 29.4,75.2 39.5,110.7 9.7,34.2 25.8,75.4 20.2,111.4 24.3,-48 76.7,-88.3 123.1,-112.8 53.8,-28.3 101.9,-25.2 143.6,7.9 z"
               id="path28"
               inkscape:connector-curvature="0"
               style="fill:#f15a23" />
            <path
               d="m 699.2,453.9 c -62.8,-35 -14.2,-121.4 6,-167.2 36.9,3.9 68.9,29.6 92.5,56.5 28.2,32.3 32.1,73.5 27.2,114.2 -29.7,-2 -63.1,-7.1 -92.7,-3.8 -9.4,1.2 -30.2,8.7 -33,0.3 z"
               id="path30"
               inkscape:connector-curvature="0"
               style="fill:#f15a23" />
            <path
               d="m 1023.1,510.9 c 4.4,-23.1 51.7,-28.5 70.4,-30 38.7,-3.3 74.2,-0.6 112.6,3.4 -5.9,18.6 -5.8,38.6 -12.5,58 -7.8,22.5 -21.8,50 -40.6,65.2 -22.5,18.2 -66.1,35.2 -89.4,12.8 -17.2,-16.5 -27.6,-41.9 -35.8,-63.7 -4.4,-11.4 -14.7,-34.3 -4.7,-45.7 z"
               id="path32"
               inkscape:connector-curvature="0"
               style="fill:#f15a23" />
            <path
               d="m 869,752.4 c -11.3,-4.3 -32.9,-15.4 -39,1.6 -4.1,11.3 12,26 21.4,30.1 10.4,4.5 30,3.3 35.7,-8.8 7.8,-16.1 -5.9,-18.2 -18.1,-22.9 z"
               id="path34"
               inkscape:connector-curvature="0"
               style="fill:#544741" />
            <g
               id="g50">
              <path
                 d="m 568.3,705 c 0,0 65.1,-19.6 105.3,3.1 40.2,22.7 59.6,51.6 62.4,76.8 2.7,25.2 -31,63.7 -84.2,102.7 -53.2,38.9 -88,24.5 -144.6,-2.9 -56.6,-27.4 -57.1,-60.8 -38,-99.8 18.3,-37.5 37.8,-58.1 99.1,-79.9 z"
                 id="path36"
                 inkscape:connector-curvature="0"
                 style="fill:#f5e6d6" />
              <path
                 d="m 460,809.1 c 1.9,-7.8 5.1,-15.9 9.2,-24.2 18.4,-37.5 37.8,-58 99.1,-79.9 0,0 65.1,-19.6 105.3,3.1 12.2,6.9 22.6,14.4 31.1,22.2 -10.5,-0.4 -20.9,-1 -32.2,2.8 -16.3,5.4 -36.3,14.2 -45.9,29.1 -9.8,15.4 -17.3,36.4 -23.6,53.7 -6,16.7 -15.5,36.6 -14,54.8 C 578.6,846 553.9,824 531.7,810.2 505.9,794.3 481.9,794.1 460,809.1 Z"
                 id="path38"
                 inkscape:connector-curvature="0"
                 style="fill:#e55123" />
              <path
                 d="m 682.6,722.9 c 32.5,-15.2 11.4,-59.9 2.9,-83.4 -18.5,0.6 -35.4,12.3 -48,24.9 -15.2,15.1 -18.6,35.5 -17.6,55.9 14.8,0 31.7,-1.3 46.3,1.4 4.6,0.8 14.7,5.3 16.4,1.2 z"
                 id="path40"
                 inkscape:connector-curvature="0"
                 style="fill:#e55123" />
              <path
                 d="m 519.4,739.9 c -1.4,-11.6 -24.7,-16 -34,-17.4 -19.1,-3 -36.9,-2.9 -56.2,-2.3 2.3,9.5 1.5,19.4 4.2,29.3 3.1,11.5 9.1,25.7 17.9,33.9 10.6,9.9 31.7,19.9 44.1,9.5 9.1,-7.6 15.2,-19.9 20.1,-30.4 2.5,-5.6 8.4,-16.6 3.9,-22.6 z"
                 id="path42"
                 inkscape:connector-curvature="0"
                 style="fill:#e55123" />
              <path
                 d="m 587.5,865.5 c 5.8,-1.7 16.9,-6.5 19.3,2.2 1.6,5.8 -6.9,12.5 -11.7,14.2 -5.3,1.9 -15.1,0.6 -17.5,-5.6 -3.2,-8.3 3.7,-8.9 9.9,-10.8 z"
                 id="path44"
                 inkscape:connector-curvature="0"
                 style="fill:#544741" />
              <path
                 d="m 462.1,720.1 c -10.8,-0.5 -21.6,-0.4 -32.9,0 2.1,8.8 1.6,18.1 3.7,27.3 12.5,-4.4 23.4,-15.3 29.2,-27.3 z"
                 id="path46"
                 inkscape:connector-curvature="0"
                 style="fill:#544741" />
              <path
                 d="m 682.8,661.6 c 3.6,-0.2 7,-1 10,-2.3 -2.6,-7.3 -5.3,-14.2 -7.3,-19.8 -12,0.4 -23.4,5.5 -33.3,12.5 8.8,6.1 18.1,10.2 30.6,9.6 z"
                 id="path48"
                 inkscape:connector-curvature="0"
                 style="fill:#544741" />
            </g>
            <path
               d="m 987,1003.7 c -18.1,-38 -36.7,-73.6 -71,-100.5 -8.9,-7 -18.5,-13 -28.5,-18.3 -6.8,7.7 -12.6,16.4 -15.8,22.7 -7.8,15.5 -14.7,12.8 6,26.3 -3.9,4.3 -17.2,12.9 -18.5,18.3 -3,12.2 6.5,7.8 7.4,16.6 0.2,1.7 5.6,5.6 6.1,10.8 0.6,6.3 -9.9,19.3 -10.3,27.6 11,1 16.5,5.1 18.9,11 35.5,-14.2 71.9,-22 105.7,-14.5 z"
               id="path52"
               inkscape:connector-curvature="0"
               style="fill:#f5e6d6" />
            <g
               id="g56">
              <path
                 d="m 736.7,618.1 c -10.6,0 -21.5,-2.8 -28.8,-6.2 -13.8,-6.5 -23.5,-21.4 -25.8,-39.8 -0.5,-3.7 2.1,-7 5.8,-7.5 3.7,-0.5 7,2.1 7.5,5.8 1.4,10.7 6.9,24.1 18.3,29.4 11.9,5.6 30.8,7.3 38.9,0.8 2.9,-2.3 7.1,-1.9 9.4,1 2.3,2.9 1.9,7.1 -1,9.4 -6.5,5.1 -15.3,7.1 -24.3,7.1 z"
                 id="path54"
                 inkscape:connector-curvature="0"
                 style="fill:#544741" />
            </g>
            <g
               id="g60">
              <path
                 d="m 1038.7,751.4 c -10.6,0 -21.5,-2.8 -28.8,-6.2 -13.8,-6.5 -23.5,-21.4 -25.8,-39.8 -0.5,-3.7 2.1,-7 5.8,-7.5 3.7,-0.5 7,2.1 7.5,5.8 1.4,10.7 6.9,24.1 18.3,29.4 11.9,5.6 30.8,7.3 38.9,0.8 2.9,-2.3 7.1,-1.9 9.4,1 2.3,2.9 1.9,7.1 -1,9.4 -6.5,5.1 -15.3,7.1 -24.3,7.1 z"
                 id="path58"
                 inkscape:connector-curvature="0"
                 style="fill:#544741" />
            </g>
            <g
               id="g64">
              <path
                 d="m 518.9,850.2 c -7.1,0 -13.6,-3.1 -16.6,-4.7 -2.4,-1.3 -3.3,-4.4 -2,-6.8 1.3,-2.4 4.4,-3.3 6.8,-2 5.8,3.2 11.8,4.3 15.6,2.8 2.4,-0.9 4,-2.8 5.1,-5.7 0.9,-2.6 3.8,-3.9 6.4,-3 2.6,0.9 4,3.8 3,6.4 -2.1,5.7 -5.9,9.8 -11,11.7 -2.3,0.9 -4.9,1.3 -7.3,1.3 z"
                 id="path62"
                 inkscape:connector-curvature="0"
                 style="fill:#544741" />
            </g>
            <g
               id="g68">
              <path
                 d="m 644.8,816 c -2.6,0 -5.5,-0.4 -8.8,-1.3 -2.7,-0.7 -4.2,-3.5 -3.5,-6.2 0.7,-2.7 3.5,-4.2 6.2,-3.5 8.9,2.5 12,0.6 18.1,-7.2 1.7,-2.2 4.9,-2.5 7,-0.8 2.2,1.7 2.5,4.9 0.8,7 -5.7,7.4 -11.3,12 -19.8,12 z"
                 id="path66"
                 inkscape:connector-curvature="0"
                 style="fill:#544741" />
            </g>
            <path
               d="m 705.2,286.8 c -6.6,14.9 -16.2,34.2 -24,54.5 15.9,5.2 33,4.1 49.5,2.7 16.4,-1.4 35.4,-8 49.7,-18.6 -21,-19.6 -46.7,-35.6 -75.2,-38.6 z"
               id="path70"
               inkscape:connector-curvature="0"
               style="fill:#544741" />
            <path
               d="m 1177.6,535.6 c 5.1,3.6 10.4,6.1 15.7,7.6 0.1,-0.3 0.2,-0.6 0.3,-0.9 6.7,-19.4 6.5,-39.4 12.5,-58 -18.4,-1.9 -36.2,-3.5 -53.9,-4.3 0.9,21.2 7.2,42.8 25.4,55.6 z"
               id="path72"
               inkscape:connector-curvature="0"
               style="fill:#544741" />
          </g>
        </g>
        <g
           id="g126"
           transform="matrix(0.09158654,0,0,0.09164102,-0.02142223,170.58915)"
           inkscape:export-xdpi="96"
           inkscape:export-ydpi="96">
          <g
             id="g100">
            <path
               d="m -16.6,290.5 c 0,0 57.4,56.4 144.6,79 87.2,22.6 102.6,21.5 102.6,21.5 0,0 -8.2,-77.9 -9.2,-129.2 -1,-51.3 -11.3,-200 -232.8,-224.6 z"
               id="path78"
               inkscape:connector-curvature="0"
               style="fill:#4ea765" />
            <path
               d="m -25.8,62.9 c 0,0 84.1,34.9 151.8,167.2 67.7,132.3 74.9,142.5 74.9,142.5 0,0 -87.2,-271.8 -226.7,-331.3 z"
               id="path80"
               inkscape:connector-curvature="0"
               style="fill:#327a42" />
            <path
               d="m 54.2,112.1 c 0,0 -8.2,111.8 0,151.8 0,0 23.6,-73.8 21.5,-126.1 z"
               id="path82"
               inkscape:connector-curvature="0"
               style="fill:#327a42" />
            <path
               d="m 36.4,83.6 c 0,0 63,4.9 94.7,37.7 0,0 -74.1,-22.3 -100,-18.9 z"
               id="path84"
               inkscape:connector-curvature="0"
               style="fill:#327a42" />
            <path
               d="m 107,188 c 0,0 21,-3.1 55.9,13.3 0,0 -35.3,1 -49.4,5.6 0,0 -7,-27.8 -6.5,-18.9 z"
               id="path86"
               inkscape:connector-curvature="0"
               style="fill:#327a42" />
            <path
               d="m 131.1,225.9 c 0,0 -7.2,28.7 -5.1,66.7 0,0 10.2,-28.8 17.4,-56.4 z"
               id="path88"
               inkscape:connector-curvature="0"
               style="fill:#327a42" />
            <path
               d="m 154.7,273.1 c 0,0 23.2,0.2 46.1,19.5 0,0 -23.8,5.6 -46.1,-6.7 z"
               id="path90"
               inkscape:connector-curvature="0"
               style="fill:#327a42" />
            <path
               d="m 173.2,-14.1 c 0,0 2.1,29.7 14.4,69.7 12.3,40 13.3,56.4 13.3,56.4 0,0 49.2,-54.4 61.5,-74.9 12.3,-20.5 0,-63.6 0,-63.6 z"
               id="path92"
               inkscape:connector-curvature="0"
               style="fill:#91c573" />
            <path
               d="m 320.8,-13 c 0,0 9.2,32.8 0,50.3 -9.2,17.4 -37.3,31.8 -53,74.9 -15.7,43.1 -18.8,54.2 -13.7,84.5 5.1,30.4 6.2,40.6 6.2,40.6 0,0 36.9,-48.2 43.1,-67.6 6.2,-19.5 27.7,-30.8 33.8,-48.2 6.1,-17.4 5.2,-64.1 -4.1,-78.5 0,0 9.2,-35.4 3.1,-60 z"
               id="path94"
               inkscape:connector-curvature="0"
               style="fill:#91c573" />
            <path
               d="m 326,-26.4 c 0,0 35.9,66.1 48.2,110 -3.1,8 -13.3,91 0,123.3 13.3,32.3 35.9,36.4 50.3,66.1 14.4,29.7 43.1,47.2 81,48.2 0,0 10.3,-68.7 -5.1,-100.5 C 485,188.9 478.9,204.3 458.4,158.1 437.9,112 449,96 392.8,73 387.7,73 365.7,-7 341.3,-30.6 Z"
               id="path96"
               inkscape:connector-curvature="0"
               style="fill:#91c573" />
            <path
               d="m 390.6,-10 c 0,0 8.2,17.4 31.8,30.8 23.6,13.3 28.7,36.9 50.3,48.2 21.6,11.3 47.2,10.3 60.5,23.6 0,0 -6.2,-70.8 -43.1,-109.7 -36.9,-38.9 -99.5,7.1 -99.5,7.1 z"
               id="path98"
               inkscape:connector-curvature="0"
               style="fill:#91c573" />
          </g>
          <g
             id="g124">
            <path
               d="m 1416.6,290.5 c 0,0 -57.4,56.4 -144.6,79 -87.2,22.6 -102.6,21.5 -102.6,21.5 0,0 8.2,-77.9 9.2,-129.2 1,-51.3 11.3,-200 232.8,-224.6 z"
               id="path102"
               inkscape:connector-curvature="0"
               style="fill:#4ea765" />
            <path
               d="m 1425.8,62.9 c 0,0 -84.1,34.9 -151.8,167.2 -67.7,132.3 -74.9,142.5 -74.9,142.5 0,0 87.2,-271.8 226.6,-331.2 v 21.5 z"
               id="path104"
               inkscape:connector-curvature="0"
               style="fill:#327a42" />
            <path
               d="m 1345.8,112.1 c 0,0 8.2,111.8 0,151.8 0,0 -23.6,-73.8 -21.5,-126.1 z"
               id="path106"
               inkscape:connector-curvature="0"
               style="fill:#327a42" />
            <path
               d="m 1363.6,83.6 c 0,0 -63,4.9 -94.7,37.7 0,0 74.1,-22.3 100,-18.9 z"
               id="path108"
               inkscape:connector-curvature="0"
               style="fill:#327a42" />
            <path
               d="m 1293,188 c 0,0 -21,-3.1 -55.9,13.3 0,0 35.3,1 49.4,5.6 0,0 7,-27.8 6.5,-18.9 z"
               id="path110"
               inkscape:connector-curvature="0"
               style="fill:#327a42" />
            <path
               d="m 1268.9,225.9 c 0,0 7.2,28.7 5.1,66.7 0,0 -10.2,-28.8 -17.4,-56.4 z"
               id="path112"
               inkscape:connector-curvature="0"
               style="fill:#327a42" />
            <path
               d="m 1245.3,273.1 c 0,0 -23.2,0.2 -46.1,19.5 0,0 23.8,5.6 46.1,-6.7 z"
               id="path114"
               inkscape:connector-curvature="0"
               style="fill:#327a42" />
            <path
               d="m 1226.8,-14.1 c 0,0 -2.1,29.7 -14.4,69.7 -12.3,40 -13.3,56.4 -13.3,56.4 0,0 -49.2,-54.4 -61.5,-74.9 -12.3,-20.5 0,-63.6 0,-63.6 z"
               id="path116"
               inkscape:connector-curvature="0"
               style="fill:#91c573" />
            <path
               d="m 1079.2,-13 c 0,0 -9.2,32.8 0,50.3 9.2,17.4 37.3,31.8 53,74.9 15.7,43.1 18.8,54.2 13.7,84.5 -5.1,30.3 -6.2,40.6 -6.2,40.6 0,0 -36.9,-48.2 -43.1,-67.6 -6.2,-19.5 -27.7,-30.8 -33.8,-48.2 -6.2,-17.4 -5.2,-64.1 4.1,-78.5 0,0 -9.2,-35.4 -3.1,-60 z"
               id="path118"
               inkscape:connector-curvature="0"
               style="fill:#91c573" />
            <path
               d="m 1074,-26.4 c 0,0 -35.9,66.1 -48.2,110 3.1,8 13.3,91 0,123.3 -13.3,32.3 -35.9,36.4 -50.3,66.1 -14.4,29.7 -43.1,47.2 -81,48.2 0,0 -10.3,-68.7 5.1,-100.5 15.4,-31.8 21.5,-16.4 42,-62.6 C 962.1,112 951,96 1007.2,73 c 5.1,0 27.1,-80 51.5,-103.6 z"
               id="path120"
               inkscape:connector-curvature="0"
               style="fill:#91c573" />
            <path
               d="m 1009.4,-10 c 0,0 -8.2,17.4 -31.8,30.8 -23.6,13.3 -28.7,36.9 -50.3,48.2 -21.6,11.3 -47.2,10.3 -60.5,23.6 0,0 6.2,-70.8 43.1,-109.7 36.9,-38.9 99.5,7.1 99.5,7.1 z"
               id="path122"
               inkscape:connector-curvature="0"
               style="fill:#91c573" />
          </g>
        </g>
        <path
           d="m 127.92808,297.03978 c 0,0 6.01723,-7.94528 8.96632,-18.28239 2.94909,-10.3371 -0.23812,-11.84002 -2.72928,-11.20769 -2.49115,0.64148 -8.39848,8.24769 -9.07622,11.42763 0,0 3.29711,-19.18046 -1.02577,-25.49453 -4.31373,-6.31407 -7.49178,1.64038 -8.05962,6.06664 -0.56784,4.42626 0,16.98108 0,16.98108 0,0 -4.19466,-22.92859 -11.86046,-20.17935 -7.665789,2.74923 3.23301,26.95162 3.23301,26.95162 0,0 -8.178679,-7.95444 -11.017862,-6.02082 -2.839182,1.93363 1.593606,14.53427 9.085382,19.76697 h 22.4845 z"
           id="path128"
           inkscape:connector-curvature="0"
           style="fill:#4ea765;stroke-width:0.09161378" />
        <path
           d="m 98.86767,297.04894 c 0,0 -1.02577,-4.53623 -7.262813,-9.31073 -6.237043,-4.77449 -7.491779,-9.31989 -5.220433,-11.19853 2.271346,-1.86947 11.805505,7.29463 13.847886,17.93415 0,0 -0.567837,-9.35655 -3.635987,-16.28461 -3.068149,-6.92806 -4.542692,-23.85416 0.677741,-23.85416 5.220436,0 5.788266,11.24436 6.694976,18.40152 0.90671,7.15716 0,20.56424 0,20.56424 0,0 2.50031,-11.17104 2.27135,-18.30987 -0.22897,-7.13884 8.28858,-15.55148 11.46663,-12.65563 3.17805,2.89586 0.67774,7.8628 -2.04238,12.65563 -2.72928,4.79282 -7.15291,18.30071 -10.22106,22.05799 z"
           id="path130"
           inkscape:connector-curvature="0"
           style="fill:#91c573;stroke-width:0.09161378" />
        <g
           id="g4359"
           transform="matrix(0.09158654,0,0,0.09164102,4.3250578,162.76238)">
          <g
             id="g1188"
             transform="matrix(1.3333333,0,0,-1.3333333,-1140.6211,1298.5425)">
            <g
               id="g128"
               transform="translate(923.976,177.9558)">
              <path
                 d="m 0,0 c 0,30.755 -0.001,61.51 0,92.265 0.001,4.377 0.268,4.646 4.628,4.646 40.211,0.002 80.423,0.002 120.634,0 4.293,0 4.665,-0.365 4.665,-4.664 0.003,-61.51 0.003,-123.02 0,-184.53 0,-4.102 -0.538,-4.638 -4.651,-4.638 -40.297,-0.003 -80.593,-0.003 -120.89,0 -3.986,0 -4.385,0.405 -4.385,4.4 C -0.001,-61.68 0,-30.84 0,0"
                 style="fill:#000000;fill-opacity:1;fill-rule:nonzero;stroke:none"
                 id="path130-7"
                 inkscape:connector-curvature="0" />
            </g>
            <g
               id="g132"
               transform="translate(1049.9988,177.9549)">
              <path
                 d="m 0,0 c 0,29.52 0,59.039 0,88.559 0,4.175 -0.269,4.447 -4.388,4.447 -37.783,0 -75.567,0 -113.35,0 -4.081,0 -4.378,-0.293 -4.378,-4.329 0,-59.125 0,-118.249 0,-177.373 0,-4.002 0.313,-4.32 4.26,-4.32 37.869,0 75.737,0 113.606,0 3.908,0 4.25,0.337 4.25,4.202 C 0,-59.21 0,-29.605 0,0"
                 style="fill:#f8eda1;fill-opacity:1;fill-rule:nonzero;stroke:none"
                 id="path134"
                 inkscape:connector-curvature="0" />
            </g>
            <g
               id="g136"
               transform="translate(1022.9843,167.8486)">
              <path
                 d="m 0,0 c -4.94,-0.02 -8.892,3.885 -8.903,8.797 -0.01,4.785 4.006,8.809 8.79,8.806 C 4.805,17.601 8.683,13.685 8.693,8.713 8.702,3.924 4.806,0.02 0,0"
                 style="fill:#ffffff;fill-opacity:1;fill-rule:nonzero;stroke:none"
                 id="path138"
                 inkscape:connector-curvature="0" />
            </g>
            <g
               id="g140"
               transform="translate(946.051,244.7798)">
              <path
                 d="M 0,0 C 0.019,4.853 3.971,8.744 8.839,8.702 13.712,8.66 17.598,4.754 17.603,-0.106 17.608,-4.892 13.586,-8.909 8.8,-8.901 3.888,-8.892 -0.019,-4.94 0,0"
                 style="fill:#ffffff;fill-opacity:1;fill-rule:nonzero;stroke:none"
                 id="path142"
                 inkscape:connector-curvature="0" />
            </g>
            <g
               id="g144"
               transform="translate(1031.6769,244.8371)">
              <path
                 d="m 0,0 c 0.021,-4.946 -3.867,-8.927 -8.749,-8.958 -4.785,-0.03 -8.827,3.966 -8.846,8.746 -0.019,4.913 3.908,8.849 8.838,8.857 C -3.949,8.653 -0.02,4.774 0,0"
                 style="fill:#ffffff;fill-opacity:1;fill-rule:nonzero;stroke:none"
                 id="path146"
                 inkscape:connector-curvature="0" />
            </g>
            <g
               id="g148"
               transform="translate(954.7791,167.8563)">
              <path
                 d="m 0,0 c -4.79,-0.016 -8.7,3.87 -8.728,8.674 -0.029,4.94 3.867,8.9 8.776,8.921 C 4.833,17.615 8.866,13.61 8.875,8.829 8.884,3.938 4.942,0.017 0,0"
                 style="fill:#ffffff;fill-opacity:1;fill-rule:nonzero;stroke:none"
                 id="path150"
                 inkscape:connector-curvature="0" />
            </g>
            <g
               id="g152"
               transform="translate(1022.8755,213.3233)">
              <path
                 d="m 0,0 c -4.97,-0.002 -8.811,3.772 -8.803,8.649 0.009,4.98 3.834,8.762 8.875,8.774 C 4.954,17.434 8.827,13.546 8.801,8.66 8.776,3.753 4.964,0.002 0,0"
                 style="fill:#ffffff;fill-opacity:1;fill-rule:nonzero;stroke:none"
                 id="path154"
                 inkscape:connector-curvature="0" />
            </g>
            <g
               id="g156"
               transform="translate(986.2098,176.6438)">
              <path
                 d="m 0,0 c -0.005,-4.959 -3.764,-8.768 -8.674,-8.788 -4.883,-0.019 -8.764,3.859 -8.749,8.743 0.016,5.035 3.809,8.86 8.788,8.862 C -3.76,8.818 0.005,4.975 0,0"
                 style="fill:#ffffff;fill-opacity:1;fill-rule:nonzero;stroke:none"
                 id="path158"
                 inkscape:connector-curvature="0" />
            </g>
            <g
               id="g160"
               transform="translate(986.2098,244.6666)">
              <path
                 d="m 0,0 c 0.001,-4.977 -3.741,-8.772 -8.662,-8.784 -4.965,-0.013 -8.753,3.826 -8.761,8.876 -0.007,4.881 3.881,8.745 8.771,8.716 C -3.746,8.779 -0.001,4.965 0,0"
                 style="fill:#ffffff;fill-opacity:1;fill-rule:nonzero;stroke:none"
                 id="path162"
                 inkscape:connector-curvature="0" />
            </g>
            <g
               id="g164"
               transform="translate(954.8691,213.3233)">
              <path
                 d="m 0,0 c -5.016,0 -8.837,3.807 -8.81,8.777 0.026,4.825 3.883,8.653 8.712,8.646 C 4.954,17.416 8.791,13.631 8.782,8.664 8.774,3.746 4.976,0 0,0"
                 style="fill:#ffffff;fill-opacity:1;fill-rule:nonzero;stroke:none"
                 id="path166"
                 inkscape:connector-curvature="0" />
            </g>
            <g
               id="g168"
               transform="translate(1022.866,208.0074)">
              <path
                 d="m 0,0 c 5.015,0 8.837,-3.806 8.811,-8.774 -0.025,-4.863 -3.918,-8.665 -8.855,-8.649 -4.909,0.017 -8.738,3.853 -8.749,8.768 C -8.805,-3.779 -4.966,0 0,0"
                 style="fill:#ffffff;fill-opacity:1;fill-rule:nonzero;stroke:none"
                 id="path170"
                 inkscape:connector-curvature="0" />
            </g>
            <g
               id="g172"
               transform="translate(991.5258,176.6532)">
              <path
                 d="M 0,0 C -0.003,4.97 3.766,8.812 8.641,8.807 13.557,8.803 17.401,4.979 17.422,0.072 17.444,-4.919 13.587,-8.822 8.661,-8.797 3.755,-8.772 0.003,-4.961 0,0"
                 style="fill:#ffffff;fill-opacity:1;fill-rule:nonzero;stroke:none"
                 id="path174"
                 inkscape:connector-curvature="0" />
            </g>
            <g
               id="g176"
               transform="translate(1008.9483,244.6391)">
              <path
                 d="m 0,0 c -0.009,-4.919 -3.847,-8.76 -8.749,-8.757 -4.963,0.003 -8.695,3.83 -8.673,8.895 0.021,4.925 3.838,8.716 8.757,8.697 C -3.8,8.817 0.009,4.933 0,0"
                 style="fill:#ffffff;fill-opacity:1;fill-rule:nonzero;stroke:none"
                 id="path178"
                 inkscape:connector-curvature="0" />
            </g>
            <g
               id="g180"
               transform="translate(954.9025,208.0073)">
              <path
                 d="m 0,0 c 4.962,-0.006 8.758,-3.778 8.749,-8.694 -0.009,-4.904 -3.855,-8.727 -8.778,-8.729 -4.929,-0.001 -8.807,3.821 -8.815,8.687 C -8.852,-3.772 -5.028,0.006 0,0"
                 style="fill:#ffffff;fill-opacity:1;fill-rule:nonzero;stroke:none"
                 id="path182"
                 inkscape:connector-curvature="0" />
            </g>
            <g
               id="g184"
               transform="translate(1000.2454,208.0046)">
              <path
                 d="m 0,0 c 5.033,-0.001 8.698,-3.662 8.703,-8.692 0.005,-4.985 -3.729,-8.727 -8.707,-8.728 -5.036,-10e-4 -8.707,3.658 -8.713,8.683 C -8.723,-3.568 -5.162,0.001 0,0"
                 style="fill:#ffffff;fill-opacity:1;fill-rule:nonzero;stroke:none"
                 id="path186"
                 inkscape:connector-curvature="0" />
            </g>
            <g
               id="g188"
               transform="translate(986.207,222.0538)">
              <path
                 d="m 0,0 c 0.003,-5.162 -3.578,-8.735 -8.747,-8.728 -5.02,0.007 -8.674,3.68 -8.673,8.717 0.001,4.986 3.73,8.708 8.722,8.703 C -3.665,8.688 -0.003,5.028 0,0"
                 style="fill:#ffffff;fill-opacity:1;fill-rule:nonzero;stroke:none"
                 id="path190"
                 inkscape:connector-curvature="0" />
            </g>
            <g
               id="g192"
               transform="translate(1000.2213,213.3262)">
              <path
                 d="m 0,0 c -5.112,0.005 -8.686,3.575 -8.693,8.684 -0.007,5.057 3.642,8.727 8.684,8.736 5.008,0.009 8.74,-3.716 8.736,-8.718 C 8.724,3.667 5.041,-0.005 0,0"
                 style="fill:#ffffff;fill-opacity:1;fill-rule:nonzero;stroke:none"
                 id="path194"
                 inkscape:connector-curvature="0" />
            </g>
            <g
               id="g196"
               transform="translate(986.207,199.2831)">
              <path
                 d="m 0,0 c -0.002,-5.031 -3.688,-8.703 -8.73,-8.699 -4.995,0.005 -8.707,3.749 -8.69,8.766 0.016,5.028 3.703,8.667 8.765,8.654 C -3.558,8.708 0.002,5.121 0,0"
                 style="fill:#ffffff;fill-opacity:1;fill-rule:nonzero;stroke:none"
                 id="path198"
                 inkscape:connector-curvature="0" />
            </g>
            <g
               id="g200"
               transform="translate(941.4106,331.6001)">
              <path
                 d="m 0,0 c 0,17.802 0,35.603 -0.001,53.405 0,0.724 0.017,1.45 -0.032,2.171 -0.096,1.397 -0.747,2.097 -2.158,2.215 -1.101,0.092 -2.213,0.035 -3.319,0.088 -1.456,0.07 -2.151,0.692 -2.156,2.133 -0.031,7.495 -0.033,14.99 -10e-4,22.485 0.006,1.513 0.71,2.214 2.218,2.228 4.471,0.042 8.943,0.044 13.414,0.001 1.588,-0.015 2.26,-0.756 2.266,-2.461 0.027,-7.367 0.011,-14.735 0.011,-22.103 0,-0.042 -0.003,-0.085 -0.006,-0.127 C 10.139,58.583 9.532,57.959 8.088,57.878 7.026,57.819 5.958,57.844 4.9,57.753 3.698,57.65 3.073,56.928 3.028,55.727 2.999,54.919 2.994,54.109 2.994,53.3 2.992,17.697 2.993,-17.906 2.986,-53.509 c 0,-0.935 -0.069,-1.871 -0.154,-2.803 -0.068,-0.754 -0.434,-1.3 -1.273,-1.329 -0.888,-0.031 -1.345,0.515 -1.462,1.304 -0.105,0.711 -0.093,1.443 -0.093,2.166 C -0.001,-36.114 0,-18.057 0,0"
                 style="fill:#df655d;fill-opacity:1;fill-rule:nonzero;stroke:none"
                 id="path202"
                 inkscape:connector-curvature="0" />
            </g>
            <g
               id="g204"
               transform="translate(988.4611,130.3263)">
              <path
                 d="m 0,0 c 12.9,0 25.801,0 38.701,0 0.426,0 0.852,0.004 1.277,-0.005 2.609,-0.057 3.332,-0.824 3.239,-3.434 C 43.15,-5.306 42.481,-6.048 40.612,-6.247 39.937,-6.32 39.252,-6.31 38.571,-6.31 12.855,-6.313 -12.86,-6.312 -38.576,-6.312 c -0.213,0 -0.426,0 -0.638,0.001 -3.234,0.02 -3.987,0.854 -3.741,4.075 0.096,1.251 0.754,1.971 1.96,2.144 0.712,0.102 1.443,0.088 2.166,0.089 C -25.886,0.001 -12.943,0 0,0"
                 style="fill:#000000;fill-opacity:1;fill-rule:nonzero;stroke:none"
                 id="path206"
                 inkscape:connector-curvature="0" />
            </g>
            <g
               id="g208"
               transform="translate(988.5914,107.8709)">
              <path
                 d="m 0,0 c -12.568,0 -25.136,0 -37.704,0 -0.639,0 -1.279,0.025 -1.917,0 -3.35,-0.129 -3.84,1.509 -3.326,4.728 0.131,0.817 0.77,1.328 1.623,1.412 0.931,0.091 1.869,0.168 2.804,0.168 25.689,0.009 51.379,0.008 77.068,0.005 0.554,0 1.109,-0.011 1.66,-0.06 C 42.816,6.021 44.066,3.577 42.766,1.261 42.331,0.487 41.618,0.127 40.769,0.064 39.963,0.004 39.152,0.003 38.343,0.002 25.562,-0.001 12.781,0 0,0"
                 style="fill:#000000;fill-opacity:1;fill-rule:nonzero;stroke:none"
                 id="path210"
                 inkscape:connector-curvature="0" />
            </g>
            <g
               id="g212"
               transform="translate(988.6027,146.5062)">
              <path
                 d="m 0,0 c 12.649,0 25.298,0 37.947,0 0.639,0 1.281,-0.049 1.916,0.003 3.454,0.282 3.598,-2.226 2.955,-4.756 -0.225,-0.888 -1.049,-1.321 -1.969,-1.39 -0.763,-0.057 -1.532,-0.062 -2.298,-0.062 -25.809,-0.003 -51.618,-0.002 -77.427,-0.002 -0.298,0 -0.598,0.022 -0.894,0.002 -3.383,-0.235 -3.749,1.634 -3.123,4.9 0.158,0.824 0.924,1.198 1.754,1.251 0.764,0.048 1.532,0.052 2.298,0.052 C -25.894,0.001 -12.947,0 0,0"
                 style="fill:#000000;fill-opacity:1;fill-rule:nonzero;stroke:none"
                 id="path214"
                 inkscape:connector-curvature="0" />
            </g>
            <g
               id="g216"
               transform="translate(998.9254,127.2577)">
              <path
                 d="M 0,0 C 0,-1.275 -0.049,-2.552 0.013,-3.823 0.084,-5.295 0.832,-5.887 2.486,-5.916 4.39,-5.95 5.298,-5.418 5.349,-3.962 5.439,-1.374 5.443,1.222 5.35,3.81 5.296,5.304 4.262,5.942 2.414,5.884 0.811,5.833 0.087,5.215 0.013,3.696 -0.048,2.467 0,1.232 0,0 m -3.004,0.064 c 0,2.084 -0.03,4.168 0.01,6.25 0.032,1.672 0.623,2.299 2.291,2.455 C 1.63,8.989 3.967,8.947 6.302,8.756 7.504,8.657 8.194,8.046 8.26,6.83 8.507,2.328 8.514,-2.177 8.267,-6.678 8.183,-8.198 7.513,-8.827 5.991,-8.875 3.783,-8.945 1.569,-8.943 -0.64,-8.882 c -1.543,0.042 -2.31,0.857 -2.346,2.441 -0.048,2.167 -0.012,4.337 -0.012,6.505 -0.002,0 -0.004,0 -0.006,0"
                 style="fill:#000000;fill-opacity:1;fill-rule:nonzero;stroke:none"
                 id="path218"
                 inkscape:connector-curvature="0" />
            </g>
            <g
               id="g220"
               transform="translate(982.8799,110.9475)">
              <path
                 d="m 0,0 c 0.002,0 0.003,0 0.005,0 0,1.276 0.044,2.554 -0.012,3.827 -0.068,1.552 -0.895,2.209 -2.654,2.223 -1.765,0.014 -2.676,-0.642 -2.713,-2.154 -0.061,-2.55 -0.062,-5.104 0.006,-7.653 0.038,-1.45 0.93,-2.084 2.638,-2.097 1.767,-0.012 2.64,0.643 2.717,2.155 C 0.05,-2.469 0,-1.233 0,0 M 3.004,0.227 C 3.003,-1.856 3.04,-3.94 2.992,-6.022 2.948,-7.979 2.206,-8.7 0.241,-8.733 c -2.04,-0.034 -4.082,-0.04 -6.121,0.011 -1.665,0.042 -2.461,0.775 -2.483,2.439 -0.056,4.25 -0.057,8.502 -0.002,12.752 0.022,1.726 0.827,2.433 2.576,2.46 2.082,0.033 4.166,0.036 6.248,-10e-4 C 2.33,8.896 2.956,8.263 2.995,6.348 3.036,4.308 3.004,2.267 3.004,0.227"
                 style="fill:#000000;fill-opacity:1;fill-rule:nonzero;stroke:none"
                 id="path222"
                 inkscape:connector-curvature="0" />
            </g>
            <g
               id="g224"
               transform="translate(962.7653,144.8151)">
              <path
                 d="m 0,0 c 0.003,0 0.007,0 0.01,0 0,-1.273 -0.085,-2.553 0.021,-3.816 0.132,-1.573 0.971,-2.171 2.727,-2.157 1.698,0.014 2.531,0.593 2.646,2.103 C 5.599,-1.33 5.59,1.223 5.411,3.763 5.3,5.336 4.44,5.934 2.684,5.919 0.942,5.905 0.147,5.298 0.019,3.69 -0.078,2.467 0,1.23 0,0 M 8.364,-0.044 C 8.362,-2.17 8.395,-4.296 8.352,-6.421 8.317,-8.125 7.629,-8.814 5.915,-8.85 3.79,-8.896 1.662,-8.896 -0.463,-8.851 c -1.721,0.036 -2.431,0.72 -2.445,2.419 -0.036,4.294 -0.038,8.589 0.002,12.883 0.015,1.635 0.723,2.313 2.376,2.348 C 1.637,8.844 3.807,8.844 5.975,8.8 7.683,8.765 8.325,8.093 8.357,6.334 8.394,4.209 8.365,2.082 8.364,-0.044"
                 style="fill:#000000;fill-opacity:1;fill-rule:nonzero;stroke:none"
                 id="path226"
                 inkscape:connector-curvature="0" />
            </g>
            <g
               id="g228"
               transform="translate(998.9256,127.2577)">
              <path
                 d="M 0,0 C 0,1.232 -0.048,2.467 0.013,3.696 0.087,5.215 0.81,5.833 2.414,5.884 4.261,5.942 5.296,5.304 5.35,3.81 5.443,1.222 5.439,-1.374 5.348,-3.962 5.297,-5.418 4.39,-5.95 2.486,-5.916 0.832,-5.887 0.084,-5.295 0.013,-3.823 -0.049,-2.552 0,-1.275 0,0"
                 style="fill:#ffffff;fill-opacity:1;fill-rule:nonzero;stroke:none"
                 id="path230"
                 inkscape:connector-curvature="0" />
            </g>
            <g
               id="g232"
               transform="translate(982.8799,110.9475)">
              <path
                 d="m 0,0 c 0,-1.233 0.05,-2.469 -0.013,-3.699 -0.077,-1.512 -0.95,-2.167 -2.717,-2.155 -1.708,0.013 -2.6,0.647 -2.638,2.097 -0.068,2.549 -0.067,5.103 -0.006,7.653 0.037,1.512 0.948,2.168 2.713,2.154 C -0.902,6.036 -0.075,5.379 -0.007,3.827 0.049,2.554 0.005,1.276 0.005,0 0.003,0 0.002,0 0,0"
                 style="fill:#ffffff;fill-opacity:1;fill-rule:nonzero;stroke:none"
                 id="path234"
                 inkscape:connector-curvature="0" />
            </g>
            <g
               id="g236"
               transform="translate(962.7653,144.8151)">
              <path
                 d="M 0,0 C 0,1.23 -0.078,2.467 0.019,3.69 0.147,5.298 0.942,5.905 2.684,5.919 4.44,5.934 5.3,5.336 5.411,3.763 5.59,1.223 5.599,-1.33 5.404,-3.87 5.289,-5.38 4.456,-5.959 2.758,-5.973 1.002,-5.987 0.163,-5.389 0.031,-3.816 -0.075,-2.553 0.01,-1.273 0.01,0 0.007,0 0.003,0 0,0"
                 style="fill:#ffffff;fill-opacity:1;fill-rule:nonzero;stroke:none"
                 id="path238"
                 inkscape:connector-curvature="0" />
            </g>
          </g>
          <g
             id="g1279"
             transform="matrix(1.3333333,0,0,-1.3333333,-1390.3232,1459.892)">
            <g
               id="g1130"
               transform="translate(170.25425,110.04238)">
              <g
                 transform="translate(1112.2045,258.1033)"
                 id="g288">
                <path
                   inkscape:connector-curvature="0"
                   id="path290"
                   style="fill:#151d38;fill-opacity:1;fill-rule:nonzero;stroke:none"
                   d="m 0,0 c -3.455,0.098 -3.624,-0.098 -2.753,-3.548 1.152,-4.562 2.344,-9.113 3.492,-13.675 0.254,-1.01 0.517,-2.042 0.57,-3.074 0.155,-3.055 -2.107,-5.752 -5.06,-6.162 -3.056,-0.423 -5.912,1.471 -6.645,4.409 -0.752,3.01 0.778,5.945 3.689,7.059 0.348,0.133 0.722,0.197 1.07,0.331 1.307,0.502 1.625,0.963 1.417,2.386 -0.15,1.03 -0.447,2.041 -0.705,3.053 -1.145,4.486 -2.312,8.966 -3.443,13.456 -0.287,1.136 -0.806,2.38 0.599,3.195 1.02,0.591 1.897,0.242 3.147,-1.308 C -3.105,4.239 -1.153,3.36 1.236,3.382 1.609,3.385 1.986,3.439 2.355,3.408 3.551,3.307 4.258,2.64 4.246,1.626 4.232,0.46 3.403,0.112 2.459,0.017 1.647,-0.065 0.82,0 0,0" />
              </g>
              <g
                 transform="translate(1117.4524,369.0106)"
                 id="g300">
                <path
                   inkscape:connector-curvature="0"
                   id="path302"
                   style="fill:#151d38;fill-opacity:1;fill-rule:nonzero;stroke:none"
                   d="m 0,0 c 0.077,4.701 -3.559,8.505 -8.197,8.573 -4.772,0.071 -8.582,-3.595 -8.697,-8.37 -0.11,-4.521 3.744,-8.422 8.356,-8.458 C -3.853,-8.293 -0.076,-4.641 0,0 m -8.263,-11.753 c -6.979,-0.024 -12.086,5.049 -12.071,11.992 0.013,6.674 5.116,11.807 11.769,11.841 C -1.599,12.116 3.502,7.043 3.498,0.084 3.495,-6.589 -1.614,-11.73 -8.263,-11.753" />
              </g>
              <g
                 transform="translate(1028.4574,328.9801)"
                 id="g320">
                <path
                   inkscape:connector-curvature="0"
                   id="path322"
                   style="fill:#151d38;fill-opacity:1;fill-rule:nonzero;stroke:none"
                   d="m 0,0 c -0.004,-4.154 -2.905,-7.067 -7.036,-7.068 -4.07,-0.001 -7.077,3.011 -7.067,7.08 0.011,4.042 3.06,7.107 7.076,7.112 C -3.001,7.129 0.004,4.082 0,0" />
              </g>
              <g
                 transform="translate(999.4028,377.1979)"
                 id="g332">
                <path
                   inkscape:connector-curvature="0"
                   id="path334"
                   style="fill:#151d38;fill-opacity:1;fill-rule:nonzero;stroke:none"
                   d="M 0,0 C -0.009,1.958 -1.615,3.57 -3.529,3.54 -5.353,3.512 -6.925,1.954 -6.971,0.128 -7.022,-1.905 -5.338,-3.565 -3.293,-3.497 -1.411,-3.435 0.009,-1.927 0,0 m 3.561,-0.007 c -0.01,-4.102 -2.987,-7.078 -7.071,-7.068 -4.022,0.009 -7.067,3.098 -7.036,7.137 0.031,4.079 3.04,7.069 7.108,7.063 4.059,-0.007 7.009,-3.013 6.999,-7.132" />
              </g>
            </g>
            <g
               id="g1261"
               transform="translate(853.34753,-282.37291)">
              <g
                 transform="translate(318.1189,842.9924)"
                 id="g292">
                <path
                   inkscape:connector-curvature="0"
                   id="path294"
                   style="fill:#151d38;fill-opacity:1;fill-rule:nonzero;stroke:none"
                   d="m 0,0 c -3.455,0.098 -3.624,-0.098 -2.753,-3.549 1.152,-4.561 2.344,-9.112 3.492,-13.674 0.254,-1.01 0.517,-2.042 0.57,-3.074 0.155,-3.055 -2.107,-5.752 -5.06,-6.161 -3.056,-0.424 -5.912,1.47 -6.645,4.408 -0.752,3.01 0.778,5.945 3.689,7.059 0.348,0.133 0.722,0.197 1.07,0.331 1.307,0.502 1.625,0.963 1.417,2.386 -0.15,1.03 -0.447,2.041 -0.705,3.053 -1.145,4.486 -2.312,8.966 -3.443,13.456 -0.287,1.136 -0.806,2.38 0.599,3.195 1.02,0.591 1.897,0.242 3.147,-1.308 C -3.105,4.239 -1.153,3.36 1.236,3.382 1.61,3.385 1.986,3.439 2.355,3.408 3.551,3.307 4.258,2.64 4.246,1.626 4.232,0.46 3.403,0.112 2.459,0.017 1.647,-0.065 0.82,0 0,0" />
              </g>
              <g
                 transform="translate(380.1336,811.6115)"
                 id="g308">
                <path
                   inkscape:connector-curvature="0"
                   id="path310"
                   style="fill:#151d38;fill-opacity:1;fill-rule:nonzero;stroke:none"
                   d="m 0,0 c 0.077,4.701 -3.56,8.505 -8.197,8.573 -4.772,0.071 -8.582,-3.595 -8.697,-8.37 -0.11,-4.521 3.744,-8.422 8.356,-8.458 C -3.853,-8.292 -0.076,-4.641 0,0 m -8.264,-11.753 c -6.978,-0.024 -12.085,5.05 -12.07,11.992 0.013,6.674 5.116,11.807 11.769,11.841 C -1.599,12.116 3.502,7.043 3.498,0.084 3.495,-6.589 -1.614,-11.73 -8.264,-11.753" />
              </g>
              <g
                 transform="translate(371.8327,861.7283)"
                 id="g316">
                <path
                   inkscape:connector-curvature="0"
                   id="path318"
                   style="fill:#151d38;fill-opacity:1;fill-rule:nonzero;stroke:none"
                   d="m 0,0 c -4.034,-0.05 -7.158,2.981 -7.213,6.998 -0.055,4.034 2.966,7.135 7.01,7.195 C 3.818,14.252 6.935,11.212 6.979,7.19 7.023,3.095 4.068,0.05 0,0" />
              </g>
            </g>
          </g>
        </g>
        <text
           xml:space="preserve"
           style="font-style:normal;font-weight:normal;font-size:3.66455102px;line-height:1.25;font-family:sans-serif;letter-spacing:0px;word-spacing:0px;fill:#f15a23;fill-opacity:1;stroke:none;stroke-width:0.09161378"
           x="44.189209"
           y="213.52858"
           id="text5178"
           transform="scale(0.99970271,1.0002974)"><tspan
             sodipodi:role="line"
             id="tspan5176"
             x="44.189209"
             y="213.52858"
             style="font-size:6.84049511px;fill:#f15a23;fill-opacity:1;stroke-width:0.09161378">Communication</tspan></text>
      </g>
    </g>
    <text
       xml:space="preserve"
       style="font-style:normal;font-weight:normal;font-size:10.58333302px;line-height:1.25;font-family:sans-serif;letter-spacing:0px;word-spacing:0px;fill:#f15a23;fill-opacity:1;stroke:none;stroke-width:0.26458332"
       x="29.666916"
       y="224.30264"
       id="text151"><tspan
         sodipodi:role="line"
         id="tspan149"
         x="29.666916"
         y="224.30264"
         style="font-size:4.93888903px;fill:#f15a23;fill-opacity:1;stroke-width:0.26458332">B</tspan></text>
    <text
       xml:space="preserve"
       style="font-style:normal;font-weight:normal;font-size:10.58333302px;line-height:1.25;font-family:sans-serif;letter-spacing:0px;word-spacing:0px;fill:#f15a23;fill-opacity:1;stroke:none;stroke-width:0.26458332;"
       x="34.477768"
       y="221.36269"
       id="text155"><tspan
         sodipodi:role="line"
         id="tspan153"
         x="34.477768"
         y="221.36269"
         style="font-size:5.29166651px;stroke-width:0.26458332;fill:#f15a23;fill-opacity:1;">2</tspan></text>
    <text
       xml:space="preserve"
       style="font-style:normal;font-weight:normal;font-size:10.58333302px;line-height:1.25;font-family:sans-serif;letter-spacing:0px;word-spacing:0px;fill:#f15a23;fill-opacity:1;stroke:none;stroke-width:0.26458332"
       x="37.952274"
       y="216.81911"
       id="text159"><tspan
         sodipodi:role="line"
         id="tspan157"
         x="37.952274"
         y="216.81911"
         style="font-size:6.3499999px;fill:#f15a23;fill-opacity:1;stroke-width:0.26458332">B</tspan></text>
  </g>
</svg>
