<svg xmlns="http://www.w3.org/2000/svg" xmlns:xlink="http://www.w3.org/1999/xlink" version="1.1" x="0px" y="0px" viewBox="0 0 100 125" enable-background="new 0 0 100 100" xml:space="preserve"><g><path d="M50,5C25.1,5,5,25.1,5,50s20.1,45,45,45s45-20.1,45-45S74.9,5,50,5z M50,93.5C26,93.5,6.5,74,6.5,50S26,6.5,50,6.5   S93.5,26,93.5,50S74,93.5,50,93.5z"/><polygon points="50.6,39 50.6,28.1 61.5,39.3 62.5,38.9 50.9,27 50,26 49.1,27 37.5,38.9 38.5,39.3 49.4,28.2 49.4,39 49.4,61.1    49.4,71.9 38.5,60.7 37.5,61.1 49.1,73 50,74 50.9,73 62.5,61.2 61.5,60.8 50.6,72 50.6,61.1  "/></g><text x="0" y="115" fill="#000000" font-size="5px" font-weight="bold" font-family="'Helvetica Neue', Helvetica, Arial-Unicode, Arial, Sans-serif">Created by Nimal Raj</text><text x="0" y="120" fill="#000000" font-size="5px" font-weight="bold" font-family="'Helvetica Neue', Helvetica, Arial-Unicode, Arial, Sans-serif">from the Noun Project</text></svg>