<svg xmlns="http://www.w3.org/2000/svg" data-name="Layer 1" viewBox="0 0 50 62.5" x="0px" y="0px"><title>arrows_tnp</title><path d="M1,15a1,1,0,0,1,1-1H45.59L39.29,7.71a1,1,0,0,1,1.41-1.41l8,8a1,1,0,0,1,0,1.41l-8,8a1,1,0,0,1-1.41-1.41L45.59,16H2A1,1,0,0,1,1,15ZM48,34H4.41l6.29-6.29a1,1,0,0,0-1.41-1.41l-8,8a1,1,0,0,0,0,1.41l8,8a1,1,0,0,0,1.41-1.41L4.41,36H48A1,1,0,0,0,48,34Z"/><text x="0" y="65" fill="#000000" font-size="5px" font-weight="bold" font-family="'Helvetica Neue', Helvetica, Arial-Unicode, Arial, Sans-serif">Created by Hare Krishna</text><text x="0" y="70" fill="#000000" font-size="5px" font-weight="bold" font-family="'Helvetica Neue', Helvetica, Arial-Unicode, Arial, Sans-serif">from the Noun Project</text></svg>